<?xml version="1.0" encoding="utf-8"?>
<!-- Generator: Adobe Illustrator 27.5.0, SVG Export Plug-In . SVG Version: 6.00 Build 0)  -->
<svg version="1.1" id="Layer_1" xmlns="http://www.w3.org/2000/svg" xmlns:xlink="http://www.w3.org/1999/xlink" x="0px" y="0px"
	 viewBox="0 0 3000 3000" style="enable-background:new 0 0 3000 3000;" xml:space="preserve">

<text x="1500" y="2180" 
    style="fill:#FFFFFF; font-family:Arial, Helvetica, sans-serif; font-size:270px; font-weight:bold; text-anchor:middle; letter-spacing:16px;">Golden Movies</text>
<text x="1500" y="2420" 
    style="fill:#FFFFFF; font-family:Arial, Helvetica, sans-serif; font-size:124px; font-weight:normal; text-anchor:middle; letter-spacing:24px;">Enterprise Group</text>

<g>
	<defs>
		<path id="SVGID_1_" d="M1663.436,1232.71c106.882,101.33,133.427,261.333,64.993,391.748l122.527-122.526
			c58.835-70.608,99.581-157.192,99.659-243.796c0-0.184-0.002-0.369-0.004-0.554c0.002-0.184,0.004-0.369,0.004-0.553
			c-0.057-62.964-21.609-125.917-55.983-182.728c-30.047-49.661-60.711-78.102-100.984-118.373L1572.593,734.87l-101.75,101.75
			c-55.961,55.963-55.961,147.536,0,203.499L1663.436,1232.71z"/>
	</defs>
	<clipPath id="SVGID_00000018205086548406107480000005335043749437377173_">
		<use xlink:href="#SVGID_1_"  style="overflow:visible;"/>
	</clipPath>
	
		<linearGradient id="SVGID_00000101091457771346290420000016370697394022502322_" gradientUnits="userSpaceOnUse" x1="1676.8531" y1="1621.1411" x2="1691.7908" y2="502.5822">
		<stop  offset="0" style="stop-color:#EC1C24"/>
		<stop  offset="0.1062" style="stop-color:#ED2A22"/>
		<stop  offset="0.3064" style="stop-color:#F04E1B"/>
		<stop  offset="0.5795" style="stop-color:#F68A11"/>
		<stop  offset="0.9116" style="stop-color:#FDDA04"/>
		<stop  offset="1" style="stop-color:#FFF100"/>
	</linearGradient>
	
		<rect x="1414.881" y="734.87" style="clip-path:url(#SVGID_00000018205086548406107480000005335043749437377173_);fill:url(#SVGID_00000101091457771346290420000016370697394022502322_);" width="535.735" height="889.588"/>
</g>
<g>
	<defs>
		<path id="SVGID_00000058571133361473322580000014299922211270479038_" d="M1672.078,1223.835
			c95.142,90.288,128.844,226.014,91.313,348.146l78.408-78.408c15.78-18.98,30.534-39.547,43.529-61.296
			c15.761-92.236-14.441-188.931-84.938-255.833l-161.161-161.16c-42.81-42.81-42.81-112.914,0-155.725
			c29.774-28.279-28.143-68.68-66.637-107.174l-92.991,92.992c-51.128,51.126-51.128,134.855,0,185.981L1672.078,1223.835z"/>
	</defs>
	<clipPath id="SVGID_00000078011435191398957890000017594411538915191442_">
		<use xlink:href="#SVGID_00000058571133361473322580000014299922211270479038_"  style="overflow:visible;"/>
	</clipPath>
	
		<linearGradient id="SVGID_00000103258775156144627520000002046509345567278474_" gradientUnits="userSpaceOnUse" x1="1658.6558" y1="1620.8975" x2="1673.5934" y2="502.3314">
		<stop  offset="0" style="stop-color:#EC1C24"/>
		<stop  offset="1" style="stop-color:#FFF100"/>
	</linearGradient>
	
		<rect x="1428.474" y="752.386" style="clip-path:url(#SVGID_00000078011435191398957890000017594411538915191442_);fill:url(#SVGID_00000103258775156144627520000002046509345567278474_);" width="472.615" height="819.596"/>
</g>
<g>
	<defs>
		<path id="SVGID_00000087407187056419294530000012540437763628479880_" d="M1728.429,1624.458
			c68.434-130.415,41.889-290.418-64.993-391.748c16.707,16.709,20.429,29.316-0.401,50.147l-84.456,84.456
			c-55.963,55.961-55.963,147.536,0,203.497l101.748,101.75L1728.429,1624.458z"/>
	</defs>
	<clipPath id="SVGID_00000099653492898301561810000011793727114534149302_">
		<use xlink:href="#SVGID_00000087407187056419294530000012540437763628479880_"  style="overflow:visible;"/>
	</clipPath>
	
		<linearGradient id="SVGID_00000170239640616779692640000006501046954953426102_" gradientUnits="userSpaceOnUse" x1="1913.4373" y1="1198.9368" x2="1308.9364" y2="1803.4377">
		<stop  offset="0" style="stop-color:#4A1877"/>
		<stop  offset="0.2271" style="stop-color:#621E8F"/>
		<stop  offset="0.7053" style="stop-color:#9F2CCE"/>
		<stop  offset="1" style="stop-color:#C735F7"/>
	</linearGradient>
	
		<rect x="1522.616" y="1232.71" style="clip-path:url(#SVGID_00000099653492898301561810000011793727114534149302_);fill:url(#SVGID_00000170239640616779692640000006501046954953426102_);" width="274.247" height="439.85"/>
</g>
<g>
	<defs>
		<path id="SVGID_00000067939322021456274580000011887712358959647383_" d="M1718.129,1616.905l-37.801,37.8l-92.821-92.823
			c-51.035-51.033-51.036-134.608-0.002-185.643l84.458-84.458c5.754-5.756,10.13-11.303,13.133-16.739
			c14.019,17.706,25.938,36.688,35.713,56.562l-31.936,31.934c-51.034,51.035-51.032,134.611,0.002,185.645l41.377,41.378
			C1726.642,1599.458,1722.602,1608.251,1718.129,1616.905"/>
	</defs>
	<clipPath id="SVGID_00000092423993334269956340000001944039094474514328_">
		<use xlink:href="#SVGID_00000067939322021456274580000011887712358959647383_"  style="overflow:visible;"/>
	</clipPath>
	
		<linearGradient id="SVGID_00000119091403705591652990000002869181504899747740_" gradientUnits="userSpaceOnUse" x1="1906.3682" y1="1191.8674" x2="1301.8694" y2="1796.3662">
		<stop  offset="0" style="stop-color:#4A1877"/>
		<stop  offset="0.3033" style="stop-color:#7422A2"/>
		<stop  offset="0.7753" style="stop-color:#B030DF"/>
		<stop  offset="1" style="stop-color:#C735F7"/>
	</linearGradient>
	
		<rect x="1536.47" y="1275.043" style="clip-path:url(#SVGID_00000092423993334269956340000001944039094474514328_);fill:url(#SVGID_00000119091403705591652990000002869181504899747740_);" width="193.782" height="379.662"/>
</g>
<g>
	<defs>
		<path id="SVGID_00000134972232472203274950000018171697180539604388_" d="M1728.429,1624.458
			c68.434-130.415,41.889-290.418-64.993-391.748c16.707,16.709,20.429,29.316-0.401,50.147
			C1731.503,1382.627,1755.208,1506.453,1728.429,1624.458"/>
	</defs>
	<clipPath id="SVGID_00000125601508156487973970000008749353956734857884_">
		<use xlink:href="#SVGID_00000134972232472203274950000018171697180539604388_"  style="overflow:visible;"/>
	</clipPath>
	
		<linearGradient id="SVGID_00000043423279702397343790000006754353279348316840_" gradientUnits="userSpaceOnUse" x1="1842.6761" y1="1315.8705" x2="1331.9873" y2="1826.4969">
		<stop  offset="0" style="stop-color:#4A1877"/>
		<stop  offset="0.1478" style="stop-color:#4F197D"/>
		<stop  offset="0.3364" style="stop-color:#5F1D8C"/>
		<stop  offset="0.5472" style="stop-color:#7823A7"/>
		<stop  offset="0.7736" style="stop-color:#9C2BCB"/>
		<stop  offset="1" style="stop-color:#C735F7"/>
	</linearGradient>
	
		<rect x="1663.035" y="1232.71" style="clip-path:url(#SVGID_00000125601508156487973970000008749353956734857884_);fill:url(#SVGID_00000043423279702397343790000006754353279348316840_);" width="133.827" height="391.748"/>
</g>
<g>
	<defs>
		<path id="SVGID_00000024707393923265339830000002631927859819944841_" d="M1336.566,1427.64
			c-106.88-101.33-133.427-261.333-64.993-391.748l-122.528,122.526c-58.835,70.607-99.581,157.192-99.659,243.796
			c0,0.184,0.002,0.368,0.004,0.554c-0.002,0.184-0.004,0.369-0.004,0.552c0.057,62.965,21.609,125.917,55.983,182.729
			c30.048,49.661,60.711,78.101,100.984,118.373l221.056,221.058l101.75-101.75c55.961-55.963,55.961-147.536,0-203.5
			L1336.566,1427.64z"/>
	</defs>
	<clipPath id="SVGID_00000029013761180827594960000006200280721453528720_">
		<use xlink:href="#SVGID_00000024707393923265339830000002631927859819944841_"  style="overflow:visible;"/>
	</clipPath>
	
		<linearGradient id="SVGID_00000021820612205319965070000013610269666151386521_" gradientUnits="userSpaceOnUse" x1="1323.1488" y1="1039.1707" x2="1308.2113" y2="2157.7292">
		<stop  offset="0" style="stop-color:#EC1C24"/>
		<stop  offset="0.1062" style="stop-color:#ED2A22"/>
		<stop  offset="0.3064" style="stop-color:#F04E1B"/>
		<stop  offset="0.5795" style="stop-color:#F68A11"/>
		<stop  offset="0.9116" style="stop-color:#FDDA04"/>
		<stop  offset="1" style="stop-color:#FFF100"/>
	</linearGradient>
	
		<rect x="1049.386" y="1035.891" style="clip-path:url(#SVGID_00000029013761180827594960000006200280721453528720_);fill:url(#SVGID_00000021820612205319965070000013610269666151386521_);" width="535.734" height="889.588"/>
</g>
<g>
	<defs>
		<path id="SVGID_00000034070540047810660370000012887225681928390025_" d="M1327.923,1436.513
			c-95.141-90.287-128.843-226.011-91.313-348.146l-78.408,78.408c-15.78,18.979-30.534,39.547-43.529,61.296
			c-15.761,92.238,14.441,188.931,84.938,255.832l161.161,161.161c42.81,42.81,42.81,112.914,0,155.724
			c-29.774,28.279,28.144,68.68,66.637,107.174l92.991-92.992c51.128-51.127,51.128-134.855,0-185.981L1327.923,1436.513z"/>
	</defs>
	<clipPath id="SVGID_00000088839470862860778920000006554955851666156975_">
		<use xlink:href="#SVGID_00000034070540047810660370000012887225681928390025_"  style="overflow:visible;"/>
	</clipPath>
	
		<linearGradient id="SVGID_00000161625182218756507390000000284233431110865842_" gradientUnits="userSpaceOnUse" x1="1341.3466" y1="1039.4138" x2="1326.4089" y2="2157.9792">
		<stop  offset="0" style="stop-color:#EC1C24"/>
		<stop  offset="1" style="stop-color:#FFF100"/>
	</linearGradient>
	
		<rect x="1098.913" y="1088.368" style="clip-path:url(#SVGID_00000088839470862860778920000006554955851666156975_);fill:url(#SVGID_00000161625182218756507390000000284233431110865842_);" width="472.615" height="819.595"/>
</g>
<g>
	<defs>
		<path id="SVGID_00000151525675004815488280000017996419758168485531_" d="M1271.573,1035.891
			c-68.434,130.415-41.887,290.418,64.993,391.748c-16.707-16.709-20.429-29.316,0.401-50.145l84.456-84.458
			c55.963-55.961,55.963-147.536,0-203.498l-101.748-101.75L1271.573,1035.891z"/>
	</defs>
	<clipPath id="SVGID_00000101784703304760752710000005066111161531000476_">
		<use xlink:href="#SVGID_00000151525675004815488280000017996419758168485531_"  style="overflow:visible;"/>
	</clipPath>
	
		<linearGradient id="SVGID_00000062179080715718898380000001797762787929109894_" gradientUnits="userSpaceOnUse" x1="1086.5825" y1="1461.3943" x2="1691.084" y2="856.8928">
		<stop  offset="0" style="stop-color:#4A1877"/>
		<stop  offset="0.2271" style="stop-color:#621E8F"/>
		<stop  offset="0.7053" style="stop-color:#9F2CCE"/>
		<stop  offset="1" style="stop-color:#C735F7"/>
	</linearGradient>
	
		<rect x="1203.139" y="987.789" style="clip-path:url(#SVGID_00000101784703304760752710000005066111161531000476_);fill:url(#SVGID_00000062179080715718898380000001797762787929109894_);" width="274.247" height="439.851"/>
</g>
<g>
	<defs>
		<path id="SVGID_00000065779612815072169930000001087894053628991918_" d="M1281.873,1043.446l37.801-37.802l92.821,92.822
			c51.034,51.034,51.036,134.609,0.002,185.643l-84.458,84.458c-5.754,5.756-10.131,11.305-13.133,16.739
			c-14.019-17.706-25.938-36.688-35.713-56.562l31.936-31.934c51.034-51.034,51.032-134.61-0.002-185.644l-41.377-41.377
			C1273.36,1060.893,1277.4,1052.098,1281.873,1043.446"/>
	</defs>
	<clipPath id="SVGID_00000057120423945473657150000005315482271537237949_">
		<use xlink:href="#SVGID_00000065779612815072169930000001087894053628991918_"  style="overflow:visible;"/>
	</clipPath>
	
		<linearGradient id="SVGID_00000048479701160938212410000006063585387307917758_" gradientUnits="userSpaceOnUse" x1="1093.6517" y1="1468.4637" x2="1698.1533" y2="863.9622">
		<stop  offset="0" style="stop-color:#4A1877"/>
		<stop  offset="0.3033" style="stop-color:#7422A2"/>
		<stop  offset="0.7753" style="stop-color:#B030DF"/>
		<stop  offset="1" style="stop-color:#C735F7"/>
	</linearGradient>
	
		<rect x="1269.75" y="1005.644" style="clip-path:url(#SVGID_00000057120423945473657150000005315482271537237949_);fill:url(#SVGID_00000048479701160938212410000006063585387307917758_);" width="193.782" height="379.662"/>
</g>
<g>
	<defs>
		<path id="SVGID_00000165233246785573029930000007807055666561691824_" d="M1271.573,1035.891
			c-68.434,130.415-41.887,290.418,64.993,391.748c-16.707-16.709-20.429-29.316,0.401-50.145
			C1268.499,1277.722,1244.794,1153.896,1271.573,1035.891"/>
	</defs>
	<clipPath id="SVGID_00000183938840291773336010000003013510794834192527_">
		<use xlink:href="#SVGID_00000165233246785573029930000007807055666561691824_"  style="overflow:visible;"/>
	</clipPath>
	
		<linearGradient id="SVGID_00000164473163273162911900000010378941099671529378_" gradientUnits="userSpaceOnUse" x1="1157.3157" y1="1344.5027" x2="1668.0045" y2="833.8138">
		<stop  offset="0" style="stop-color:#4A1877"/>
		<stop  offset="0.1478" style="stop-color:#4F197D"/>
		<stop  offset="0.3364" style="stop-color:#5F1D8C"/>
		<stop  offset="0.5472" style="stop-color:#7823A7"/>
		<stop  offset="0.7736" style="stop-color:#9C2BCB"/>
		<stop  offset="1" style="stop-color:#C735F7"/>
	</linearGradient>
	
		<rect x="1203.139" y="1035.891" style="clip-path:url(#SVGID_00000183938840291773336010000003013510794834192527_);fill:url(#SVGID_00000164473163273162911900000010378941099671529378_);" width="133.827" height="391.748"/>
</g>
</svg>
